<?xml version="1.0" standalone="no"?>
<!DOCTYPE svg PUBLIC "-//W3C//DTD SVG 20010904//EN"
 "http://www.w3.org/TR/2001/REC-SVG-20010904/DTD/svg10.dtd">
<svg version="1.0" xmlns="http://www.w3.org/2000/svg"
 width="20.000000pt" height="20.000000pt" viewBox="0 0 68.000000 59.000000"
 preserveAspectRatio="xMidYMid meet">

<g transform="translate(0.000000,59.000000) scale(0.100000,-0.100000)"
fill="#000000" stroke="none">
<path d="M0 295 l0 -295 340 0 340 0 0 295 0 295 -340 0 -340 0 0 -295z m490
5 l0 -140 -160 0 -160 0 0 140 0 140 160 0 160 0 0 -140z"/>
<path d="M190 300 l0 -120 140 0 140 0 0 120 0 120 -140 0 -140 0 0 -120z m96
44 c24 -20 44 -40 44 -44 0 -12 -90 -83 -97 -76 -4 3 9 22 27 41 l34 35 -32
33 c-30 31 -39 47 -26 47 3 0 26 -16 50 -36z m144 -114 c0 -5 -22 -10 -50 -10
-27 0 -50 5 -50 10 0 6 23 10 50 10 28 0 50 -4 50 -10z"/>
</g>
</svg>
